<?xml version="1.0" standalone="no"?>
<!DOCTYPE svg PUBLIC "-//W3C//DTD SVG 20010904//EN"
 "http://www.w3.org/TR/2001/REC-SVG-20010904/DTD/svg10.dtd">
<svg version="1.0" xmlns="http://www.w3.org/2000/svg"
 width="256.000000pt" height="256.000000pt" viewBox="0 0 256.000000 256.000000"
 preserveAspectRatio="xMidYMid meet">
<metadata>
Created by potrace 1.14, written by Peter Selinger 2001-2017
</metadata>
<g transform="translate(0.000000,256.000000) scale(0.100000,-0.100000)"
fill="#000000" stroke="none">
<path d="M0 1280 l0 -1280 1280 0 1280 0 0 1280 0 1280 -1280 0 -1280 0 0
-1280z m1170 905 l0 -55 -370 0 -370 0 0 -370 0 -370 -55 0 -55 0 0 425 0 425
425 0 425 0 0 -55z m-212 -482 c16 -43 80 -214 142 -381 63 -166 117 -299 121
-295 4 5 68 168 142 363 75 195 139 363 142 373 6 14 20 17 91 17 l84 0 0
-465 0 -465 -55 0 -56 0 3 404 c2 222 1 402 -2 400 -2 -3 -72 -183 -155 -402
l-152 -397 -49 -3 -49 -3 -150 403 -150 402 -3 -402 -2 -402 -50 0 -50 0 0
465 0 465 84 0 84 0 30 -77z m1180 -855 l-3 -423 -422 -3 -423 -2 0 55 0 55
370 0 370 0 0 370 0 370 55 0 55 0 -2 -422z"/>
</g>
</svg>
